<svg id="Layer_1" data-name="Layer 1" xmlns="http://www.w3.org/2000/svg" viewBox="0 0 100 100"><defs><style>.cls-1{fill:#e6e6e6;}.cls-1,.cls-2{opacity:0.88;}.cls-2{fill:#00d863;}</style></defs><path class="cls-1" d="M67,20.61a8,8,0,0,0,4,1.08A8,8,0,1,0,64,9.64a8,8,0,0,0,2.94,11Z"/><path class="cls-1" d="M50,0a8,8,0,1,0,8,8A8,8,0,0,0,50,0Z"/><path class="cls-1" d="M79.39,33a8,8,0,0,0,11,2.94A8,8,0,0,0,93.3,25a8,8,0,0,0-11-2.94,8,8,0,0,0-2.94,11Z"/><path class="cls-1" d="M92,42A8,8,0,0,0,92,58h0A8,8,0,0,0,92,42Z"/><path class="cls-1" d="M90.36,64A8,8,0,1,0,93.3,75,8,8,0,0,0,90.36,64Z"/><path class="cls-1" d="M71,78.31a8,8,0,0,0-4,1.08A8,8,0,1,0,75,93.3a8,8,0,0,0,2.94-11A8.06,8.06,0,0,0,71,78.31Z"/><path class="cls-1" d="M50,83.93a8,8,0,1,0,8,8A8,8,0,0,0,50,83.93Z"/><path class="cls-1" d="M33,79.39a8,8,0,0,0-4-1.08,8,8,0,1,0,4,1.08Z"/><path class="cls-1" d="M20.61,67a8,8,0,1,0-2.94,11A8.06,8.06,0,0,0,20.61,67Z"/><path class="cls-1" d="M16.07,50a8,8,0,1,0-8,8A8,8,0,0,0,16.07,50Z"/><path class="cls-1" d="M9.64,36A8,8,0,1,0,6.7,25,8,8,0,0,0,9.64,36Z"/><path class="cls-1" d="M29,5.62a8,8,0,1,0,7,4A8,8,0,0,0,29,5.62Z"/><path class="cls-2" d="M72.9,61.3H32V32.51A1.52,1.52,0,0,0,30.48,31h-3a1.52,1.52,0,0,0-1.51,1.51V64.33a3,3,0,0,0,3,3H72.9a1.51,1.51,0,0,0,1.51-1.51v-3A1.51,1.51,0,0,0,72.9,61.3ZM69.87,34H58.69a2.27,2.27,0,0,0-1.61,3.88L60.15,41,53.2,47.92,46.26,41A3,3,0,0,0,42,41l-6.5,6.5a1.51,1.51,0,0,0,0,2.14l2.14,2.14a1.5,1.5,0,0,0,2.14,0l4.36-4.36,7,7a3,3,0,0,0,4.28,0l9.09-9.09,3.07,3.07a2.28,2.28,0,0,0,3.88-1.61V35.54A1.52,1.52,0,0,0,69.87,34Z"/></svg>