<svg id="Layer_1" data-name="Layer 1" xmlns="http://www.w3.org/2000/svg" viewBox="0 0 100 100"><defs><style>.cls-1{fill:#e6e6e6;}.cls-1,.cls-2{opacity:0.88;}.cls-2{fill:#00d863;}</style></defs><path class="cls-1" d="M67,20.61a8,8,0,0,0,4,1.08A8,8,0,1,0,64,9.64a8,8,0,0,0,2.94,11Z"/><path class="cls-1" d="M50,0a8,8,0,1,0,8,8A8,8,0,0,0,50,0Z"/><path class="cls-1" d="M79.39,33a8,8,0,0,0,11,2.94A8,8,0,0,0,93.3,25a8,8,0,0,0-11-2.94,8,8,0,0,0-2.94,11Z"/><path class="cls-1" d="M92,42A8,8,0,0,0,92,58h0A8,8,0,0,0,92,42Z"/><path class="cls-1" d="M90.36,64A8,8,0,1,0,93.3,75,8,8,0,0,0,90.36,64Z"/><path class="cls-1" d="M71,78.31a8,8,0,0,0-4,1.08A8,8,0,1,0,75,93.3a8,8,0,0,0,2.94-11A8.06,8.06,0,0,0,71,78.31Z"/><path class="cls-1" d="M50,83.93a8,8,0,1,0,8,8A8,8,0,0,0,50,83.93Z"/><path class="cls-1" d="M33,79.39a8,8,0,0,0-4-1.08,8,8,0,1,0,4,1.08Z"/><path class="cls-1" d="M20.61,67a8,8,0,1,0-2.94,11A8.06,8.06,0,0,0,20.61,67Z"/><path class="cls-1" d="M16.07,50a8,8,0,1,0-8,8A8,8,0,0,0,16.07,50Z"/><path class="cls-1" d="M9.64,36A8,8,0,1,0,6.7,25,8,8,0,0,0,9.64,36Z"/><path class="cls-1" d="M29,5.62a8,8,0,1,0,7,4A8,8,0,0,0,29,5.62Z"/><path class="cls-2" d="M68,29.55a1.17,1.17,0,0,0-2.12-.09A12.8,12.8,0,0,1,54.65,36h-6A14.36,14.36,0,0,0,34.31,50.35a13,13,0,0,0,.12,1.54c4.77-3.42,11.65-6.32,21.41-6.32a1.2,1.2,0,1,1,0,2.39C37.05,48,29.08,59.48,27.32,63.81a2.39,2.39,0,0,0,4.43,1.82,19.68,19.68,0,0,1,5.37-6.78A14.3,14.3,0,0,0,50.2,64.62c11.74-.85,20-11.37,20-24.26A27.2,27.2,0,0,0,68,29.55Z"/></svg>