<svg id="Layer_1" data-name="Layer 1" xmlns="http://www.w3.org/2000/svg" viewBox="0 0 100 100"><defs><style>.cls-1{fill:#e6e6e6;}.cls-1,.cls-2{opacity:0.88;}.cls-2{fill:#00d863;}</style></defs><path class="cls-1" d="M67,20.61a8,8,0,0,0,4,1.08A8,8,0,1,0,64,9.64a8,8,0,0,0,2.94,11Z"/><path class="cls-1" d="M50,0a8,8,0,1,0,8,8A8,8,0,0,0,50,0Z"/><path class="cls-1" d="M79.39,33a8,8,0,0,0,11,2.94A8,8,0,0,0,93.3,25a8,8,0,0,0-11-2.94,8,8,0,0,0-2.94,11Z"/><path class="cls-1" d="M92,42A8,8,0,0,0,92,58h0A8,8,0,0,0,92,42Z"/><path class="cls-1" d="M90.36,64A8,8,0,1,0,93.3,75,8,8,0,0,0,90.36,64Z"/><path class="cls-1" d="M71,78.31a8,8,0,0,0-4,1.08A8,8,0,1,0,75,93.3a8,8,0,0,0,2.94-11A8.06,8.06,0,0,0,71,78.31Z"/><path class="cls-1" d="M50,83.93a8,8,0,1,0,8,8A8,8,0,0,0,50,83.93Z"/><path class="cls-1" d="M33,79.39a8,8,0,0,0-4-1.08,8,8,0,1,0,4,1.08Z"/><path class="cls-1" d="M20.61,67a8,8,0,1,0-2.94,11A8.06,8.06,0,0,0,20.61,67Z"/><path class="cls-1" d="M16.07,50a8,8,0,1,0-8,8A8,8,0,0,0,16.07,50Z"/><path class="cls-1" d="M9.64,36A8,8,0,1,0,6.7,25,8,8,0,0,0,9.64,36Z"/><path class="cls-1" d="M29,5.62a8,8,0,1,0,7,4A8,8,0,0,0,29,5.62Z"/><path class="cls-2" d="M73,60.69H54.55a2.4,2.4,0,0,1-2.49,2.44H47.43a2.59,2.59,0,0,1-2.5-2.44H26.71a1.22,1.22,0,0,0-1.22,1.22v1.22A4.88,4.88,0,0,0,30.37,68h39a4.88,4.88,0,0,0,4.87-4.87V61.91A1.22,1.22,0,0,0,73,60.69Zm-3.65-28A3.67,3.67,0,0,0,65.71,29H34a3.67,3.67,0,0,0-3.65,3.66V58.25h39ZM64.49,53.38H35.24V33.88H64.49Z"/></svg>