<svg id="Capa_1" data-name="Capa 1" xmlns="http://www.w3.org/2000/svg" viewBox="0 0 342 100"><defs><style>.cls-1{fill:#42d86b;opacity:0.88;}.cls-2{fill:#00a79d;}</style></defs><path class="cls-1" d="M172.08,30.2a4,4,0,1,0-1.46-5.47,4,4,0,0,0,1.46,5.47Z"/><path class="cls-1" d="M163.62,19.92a4,4,0,1,0,4,4A4,4,0,0,0,163.62,19.92Z"/><path class="cls-1" d="M178.28,36.4a4,4,0,0,0,5.48,1.47,4,4,0,0,0-2-7.48,4,4,0,0,0-3.47,6Z"/><path class="cls-1" d="M184.56,40.86a4,4,0,1,0,0,8h0a4,4,0,0,0,0-8Z"/><path class="cls-1" d="M183.76,51.87a3.93,3.93,0,0,0-2-.54,4,4,0,0,0-3.48,2,4,4,0,0,0,1.47,5.48,4,4,0,0,0,4-6.94Z"/><path class="cls-1" d="M174.08,59a4,4,0,0,0,0,8,3.93,3.93,0,0,0,2-.54A4,4,0,0,0,177.56,61,4,4,0,0,0,174.08,59Z"/><path class="cls-1" d="M163.62,61.8A4,4,0,0,0,160.78,63a4,4,0,1,0,2.84-1.17Z"/><path class="cls-1" d="M155.15,59.53a4,4,0,1,0-4,6.94,3.93,3.93,0,0,0,2,.54,4,4,0,0,0,2-7.48Z"/><path class="cls-1" d="M149,53.33a4,4,0,0,0-3.47-2,3.93,3.93,0,0,0-2,.54,4,4,0,0,0,2,7.48,4.06,4.06,0,0,0,2-.54A4,4,0,0,0,149,53.33Z"/><path class="cls-1" d="M146.68,44.87a4,4,0,1,0-4,4A4,4,0,0,0,146.68,44.87Z"/><path class="cls-1" d="M143.48,37.87A4,4,0,0,0,149,36.4a4,4,0,0,0-1.47-5.48,4,4,0,0,0-2-.53,4,4,0,0,0-2,7.48Z"/><path class="cls-1" d="M153.14,22.72a4,4,0,1,0,2,7.48,4,4,0,0,0,1.47-5.47A4,4,0,0,0,153.14,22.72Z"/><path class="cls-2" d="M65.18,69.36h-5.9v-7.1q-7.43,8.51-18.19,8.14a22.47,22.47,0,0,1-16-7.26,23.23,23.23,0,0,1-6.62-16.52,23.37,23.37,0,0,1,7.1-17.07,21.73,21.73,0,0,1,17-6.78A22.74,22.74,0,0,1,58.8,30.11a21.65,21.65,0,0,1,6.38,16.43V69.36ZM24.57,46.14a17.64,17.64,0,0,0,4.71,12.61,16.65,16.65,0,0,0,11.89,5.66,15.87,15.87,0,0,0,12.76-5.18,17.93,17.93,0,0,0,5.19-13.17A17.67,17.67,0,0,0,54,33.78a15.83,15.83,0,0,0-11.89-5.11,16.74,16.74,0,0,0-12.36,5.11A17.09,17.09,0,0,0,24.57,46.14Z"/><path class="cls-2" d="M114.33,67.21a17.57,17.57,0,0,1-7.1,14.28,24.65,24.65,0,0,1-30.16.4,21.37,21.37,0,0,1-7.5-11.41h5.9a15.07,15.07,0,0,0,6.07,8.06A16.83,16.83,0,0,0,91.83,82a16.57,16.57,0,0,0,11.57-4.71,14.46,14.46,0,0,0,4.95-10.93V62a22.53,22.53,0,0,1-16.76,8.06A22,22,0,0,1,74.67,63.3a23.73,23.73,0,0,1-7.1-17.16,23.14,23.14,0,0,1,6.55-16.51,22.84,22.84,0,0,1,33.11-.32,22.25,22.25,0,0,1,7.1,16.91ZM103.08,59a17.68,17.68,0,0,0,5.11-12.29,17.36,17.36,0,0,0-5.11-13.08,15.7,15.7,0,0,0-12.77-5.27A16.64,16.64,0,0,0,78.42,34.1a17.49,17.49,0,0,0-4.78,12.52A17.2,17.2,0,0,0,78.9,59,16.7,16.7,0,0,0,91.19,64.1,15.71,15.71,0,0,0,103.08,59Z"/><path class="cls-2" d="M122.62,69.36h-6.38V23.88h5.67v6.47a13.35,13.35,0,0,1,5.66-5.67,14.11,14.11,0,0,1,7-1.68v6.07a11.13,11.13,0,0,0-6.86,2.31,17,17,0,0,0-3.59,3.75,13.67,13.67,0,0,0-1.52,7Z"/><path class="cls-2" d="M232.06,69.36H226V42.87A13.52,13.52,0,0,0,221.77,33a13.23,13.23,0,0,0-9.9-4.07,13.89,13.89,0,0,0-9.73,3.91,12.51,12.51,0,0,0-3.91,9.57v27h-6.3V7.85h6.14v22.5a17,17,0,0,1,13.32-7.19,18.75,18.75,0,0,1,14.53,5.59,19.93,19.93,0,0,1,6.14,14.76Z"/><path class="cls-2" d="M274.11,49.81a20.27,20.27,0,0,1-5.75,14.76A19.07,19.07,0,0,1,254,70.48a19.37,19.37,0,0,1-14.44-5.91,20.54,20.54,0,0,1-5.67-14.76V23.88H240V50.53a13.45,13.45,0,0,0,4.15,9.9A13.63,13.63,0,0,0,254,64.5a14.17,14.17,0,0,0,14-14V23.88h6.15Z"/><path class="cls-2" d="M276.74,46.22V7.85h6v23a22.23,22.23,0,0,1,16.76-8,21.68,21.68,0,0,1,16.91,6.78,23.25,23.25,0,0,1,7.18,17.07A23.23,23.23,0,0,1,317,63.14a22.64,22.64,0,0,1-16.12,7.26,22.35,22.35,0,0,1-17.07-6.86,22.2,22.2,0,0,1-7-17Zm35.9,12.53a17.59,17.59,0,0,0,4.79-12.61,17.12,17.12,0,0,0-5.27-12.28,16.51,16.51,0,0,0-12.28-5.19A15.83,15.83,0,0,0,288,33.78a17.67,17.67,0,0,0-5.11,12.28A17.54,17.54,0,0,0,288,59.23a16.08,16.08,0,0,0,12.76,5.18A16.51,16.51,0,0,0,312.64,58.75Z"/></svg>